<svg width="80" height="97" viewBox="0 0 80 97" fill="none" xmlns="http://www.w3.org/2000/svg">
<path d="M77.5 40.1665C77.5 69.3332 40 94.3332 40 94.3332C40 94.3332 2.5 69.3332 2.5 40.1665C2.5 30.2209 6.45088 20.6826 13.4835 13.65C20.5161 6.61739 30.0544 2.6665 40 2.6665C49.9456 2.6665 59.4839 6.61739 66.5165 13.65C73.5491 20.6826 77.5 30.2209 77.5 40.1665Z" stroke="#EB8917" stroke-width="4" stroke-linecap="round" stroke-linejoin="round"/>
<path d="M40 52.6665C46.9036 52.6665 52.5 47.0701 52.5 40.1665C52.5 33.2629 46.9036 27.6665 40 27.6665C33.0964 27.6665 27.5 33.2629 27.5 40.1665C27.5 47.0701 33.0964 52.6665 40 52.6665Z" stroke="#EB8917" stroke-width="4" stroke-linecap="round" stroke-linejoin="round"/>
</svg>
