<svg width="88" height="88" viewBox="0 0 88 88" fill="none" xmlns="http://www.w3.org/2000/svg">
<path d="M85.6667 65.0001V77.5001C85.6714 78.6605 85.4337 79.8091 84.9688 80.8724C84.5039 81.9356 83.8221 82.89 82.967 83.6745C82.1119 84.459 81.1024 85.0563 80.0031 85.428C78.9038 85.7998 77.7391 85.9379 76.5833 85.8334C63.7618 84.4402 51.4458 80.059 40.625 73.0417C30.5576 66.6445 22.0222 58.1091 15.625 48.0417C8.58324 37.1718 4.20101 24.7959 2.83333 11.9167C2.72921 10.7645 2.86614 9.60325 3.23542 8.50685C3.60469 7.41045 4.19821 6.40295 4.97819 5.5485C5.75817 4.69405 6.70752 4.01137 7.76579 3.54392C8.82407 3.07647 9.96808 2.8345 11.125 2.83341H23.625C25.6471 2.81351 27.6075 3.52957 29.1407 4.84813C30.6739 6.16669 31.6753 7.99777 31.9583 10.0001C32.4859 14.0004 33.4644 17.9281 34.875 21.7084C35.4356 23.1998 35.5569 24.8206 35.2246 26.3787C34.8923 27.9369 34.1203 29.3672 33 30.5001L27.7083 35.7917C33.6398 46.2232 42.2769 54.8603 52.7083 60.7917L58 55.5001C59.1329 54.3798 60.5631 53.6078 62.1213 53.2755C63.6795 52.9432 65.3003 53.0645 66.7917 53.6251C70.572 55.0357 74.4997 56.0141 78.5 56.5417C80.524 56.8273 82.3725 57.8468 83.6939 59.4063C85.0153 60.9658 85.7174 62.9566 85.6667 65.0001Z" stroke="#EB8917" stroke-width="4" stroke-linecap="round" stroke-linejoin="round"/>
</svg>
